<?xml version="1.0" encoding="iso-8859-1"?>
<!-- Uploaded to: SVG Repo, www.svgrepo.com, Generator: SVG Repo Mixer Tools -->
<svg height="800px" width="800px" version="1.1" id="Layer_1" xmlns="http://www.w3.org/2000/svg" xmlns:xlink="http://www.w3.org/1999/xlink" 
	 viewBox="0 0 480 480" xml:space="preserve">
<path style="fill:#FFFBFB;" d="M240,8c101.6,0,184,82.4,184,184S302.64,472,240,472c-65.36,0-184-178.4-184-280S138.4,8,240,8z"/>
<circle style="fill:#F95754;" cx="240" cy="184" r="128"/>
<path style="fill:#FFFBFB;" d="M286.56,149.12c19.28,0,35.6,15.6,35.6,34.88S304,218.88,288,218.88V264h-96v-45.12
	c-16,0-34.16-15.6-34.16-34.88s16.32-34.88,35.6-34.88c0-25.76,20.88-46.56,46.56-46.56S286.56,123.36,286.56,149.12z"/>
<circle style="fill:#F85766;" cx="240" cy="392" r="32"/>
<g>
	<path style="fill:#132C47;" d="M376,184c0-74.992-61.008-136-136-136s-136,61.008-136,136s61.008,136,136,136S376,258.992,376,184z
		 M120,184c0-66.168,53.832-120,120-120s120,53.832,120,120s-53.832,120-120,120S120,250.168,120,184z"/>
	<path style="fill:#132C47;" d="M296,264v-38.064c17.424-4.04,34.16-20.656,34.16-41.936c0-21.128-15.624-38.736-36.096-42.248
		c-3.608-26.608-26.48-47.184-54.064-47.184s-50.456,20.576-54.064,47.184c-20.48,3.512-36.096,21.128-36.096,42.248
		c0,21.28,16.736,37.896,34.16,41.936V264c0,4.424,3.584,8,8,8h96C292.416,272,296,268.424,296,264z M280,218.88V256h-80v-37.12
		c0-4.424-3.584-8-8-8c-11.776,0-26.16-12.408-26.16-26.88c0-14.08,11.832-25.944,26.128-26.736
		c18.8,9.152,17.168,23.568,16.88,25.312c-0.784,4.312,2.056,8.456,6.368,9.28c0.512,0.096,1.024,0.144,1.52,0.144
		c3.76,0,7.12-2.664,7.848-6.496c1.792-9.344-1.016-29.056-22.664-41.112c2.36-19.016,18.44-33.832,38.08-33.832
		c21.264,0,38.56,17.296,38.56,38.552c0,4.424,3.584,8,8,8c14.96,0,27.6,12.312,27.6,26.88c0,14.48-14.384,26.88-26.16,26.88
		C283.584,210.88,280,214.464,280,218.88z"/>
	<path style="fill:#132C47;" d="M384,464H281.336C349.552,417.248,432,278.288,432,192C432,86.136,345.864,0,240,0S48,86.136,48,192
		c0,86.288,82.448,225.248,150.664,272H96c-4.416,0-8,3.576-8,8s3.584,8,8,8h288c4.416,0,8-3.576,8-8S388.416,464,384,464z M64,192
		c0-97.048,78.952-176,176-176s176,78.952,176,176c0,101.24-119.968,272-176,272C174.496,464,64,278.592,64,192z"/>
	<path style="fill:#132C47;" d="M240,352c-22.056,0-40,17.944-40,40s17.944,40,40,40s40-17.944,40-40S262.056,352,240,352z M240,416
		c-13.232,0-24-10.768-24-24s10.768-24,24-24s24,10.768,24,24S253.232,416,240,416z"/>
</g>
</svg>