<svg width="288" height="386" viewBox="0 0 288 386" fill="none" xmlns="http://www.w3.org/2000/svg">
<mask id="path-1-outside-1_0_1" maskUnits="userSpaceOnUse" x="5.41666" y="8.5625" width="277" height="361" fill="black">
<rect fill="white" x="5.41666" y="8.5625" width="277" height="361"/>
<path fill-rule="evenodd" clip-rule="evenodd" d="M224.598 258.496C258.548 233.412 280.583 192.98 280.583 147.375C280.583 71.2633 219.209 9.5625 143.5 9.5625C67.791 9.5625 6.41666 71.2633 6.41666 147.375C6.41666 192.98 28.4516 233.411 62.4021 258.496C88.5601 278.311 125.581 309.73 133.26 360.578C133.877 364.665 137.303 367.833 141.438 367.833H143.5H145.562C149.697 367.833 153.123 364.665 153.74 360.578C161.419 309.73 198.44 278.311 224.598 258.496Z"/>
</mask>
<path fill-rule="evenodd" clip-rule="evenodd" d="M224.598 258.496C258.548 233.412 280.583 192.98 280.583 147.375C280.583 71.2633 219.209 9.5625 143.5 9.5625C67.791 9.5625 6.41666 71.2633 6.41666 147.375C6.41666 192.98 28.4516 233.411 62.4021 258.496C88.5601 278.311 125.581 309.73 133.26 360.578C133.877 364.665 137.303 367.833 141.438 367.833H143.5H145.562C149.697 367.833 153.123 364.665 153.74 360.578C161.419 309.73 198.44 278.311 224.598 258.496Z" fill="white"/>
<path d="M224.598 258.496L224.003 257.692L223.994 257.699L224.598 258.496ZM62.4021 258.496L63.006 257.698L62.9963 257.691L62.4021 258.496ZM133.26 360.578L134.249 360.428L134.249 360.428L133.26 360.578ZM153.74 360.578L152.751 360.428L152.751 360.428L153.74 360.578ZM225.192 259.3C259.388 234.035 281.583 193.31 281.583 147.375H279.583C279.583 192.651 257.709 232.789 224.003 257.692L225.192 259.3ZM281.583 147.375C281.583 70.716 219.766 8.5625 143.5 8.5625V10.5625C218.652 10.5625 279.583 71.8105 279.583 147.375H281.583ZM143.5 8.5625C67.2337 8.5625 5.41666 70.716 5.41666 147.375H7.41666C7.41666 71.8105 68.3482 10.5625 143.5 10.5625V8.5625ZM5.41666 147.375C5.41666 193.31 27.6121 234.034 61.8078 259.3L62.9963 257.691C29.2911 232.788 7.41666 192.651 7.41666 147.375H5.41666ZM134.249 360.428C126.506 309.155 89.1788 277.525 63.0059 257.699L61.7983 259.293C87.9414 279.097 124.657 310.304 132.271 360.727L134.249 360.428ZM141.438 366.833C137.835 366.833 134.798 364.065 134.249 360.428L132.271 360.727C132.957 365.266 136.772 368.833 141.438 368.833V366.833ZM143.5 366.833H141.438V368.833H143.5V366.833ZM145.562 366.833H143.5V368.833H145.562V366.833ZM152.751 360.428C152.202 364.065 149.165 366.833 145.562 366.833V368.833C150.228 368.833 154.043 365.266 154.729 360.727L152.751 360.428ZM223.994 257.699C197.821 277.525 160.494 309.155 152.751 360.428L154.729 360.727C162.343 310.304 199.058 279.097 225.201 259.293L223.994 257.699Z" fill="url(#paint0_linear_0_1)" mask="url(#path-1-outside-1_0_1)"/>
<mask id="path-3-outside-2_0_1" maskUnits="userSpaceOnUse" x="23" y="23.125" width="242" height="316" fill="black">
<rect fill="white" x="23" y="23.125" width="242" height="316"/>
<path fill-rule="evenodd" clip-rule="evenodd" d="M214.991 242.012C244.711 220.056 264 184.667 264 144.75C264 78.1306 210.274 24.125 144 24.125C77.7258 24.125 24 78.1306 24 144.75C24 184.667 43.289 220.056 73.0086 242.012C95.7522 259.239 127.877 286.485 134.896 330.464C135.548 334.546 138.97 337.713 143.104 337.713H144H144.896C149.03 337.713 152.452 334.546 153.104 330.464C160.123 286.485 192.248 259.239 214.991 242.012Z"/>
</mask>
<path fill-rule="evenodd" clip-rule="evenodd" d="M214.991 242.012C244.711 220.056 264 184.667 264 144.75C264 78.1306 210.274 24.125 144 24.125C77.7258 24.125 24 78.1306 24 144.75C24 184.667 43.289 220.056 73.0086 242.012C95.7522 259.239 127.877 286.485 134.896 330.464C135.548 334.546 138.97 337.713 143.104 337.713H144H144.896C149.03 337.713 152.452 334.546 153.104 330.464C160.123 286.485 192.248 259.239 214.991 242.012Z" fill="#EA352B"/>
<path d="M214.991 242.012L214.397 241.208L214.388 241.215L214.991 242.012ZM73.0086 242.012L73.6124 241.215L73.6028 241.208L73.0086 242.012ZM134.896 330.464L135.884 330.306L135.884 330.306L134.896 330.464ZM153.104 330.464L152.116 330.306L152.116 330.306L153.104 330.464ZM215.586 242.816C245.551 220.679 265 184.997 265 144.75H263C263 184.338 243.872 219.433 214.397 241.208L215.586 242.816ZM265 144.75C265 77.5833 210.831 23.125 144 23.125V25.125C209.717 25.125 263 78.678 263 144.75H265ZM144 23.125C77.1687 23.125 23 77.5833 23 144.75H25C25 78.678 78.283 25.125 144 25.125V23.125ZM23 144.75C23 184.997 42.4495 220.679 72.4144 242.816L73.6028 241.208C44.1284 219.433 25 184.338 25 144.75H23ZM135.884 330.306C128.798 285.908 96.3709 258.453 73.6124 241.215L72.4048 242.809C95.1336 260.025 126.957 287.063 133.909 330.621L135.884 330.306ZM143.104 336.713C139.503 336.713 136.465 333.946 135.884 330.306L133.909 330.621C134.631 335.147 138.436 338.713 143.104 338.713V336.713ZM144 336.713H143.104V338.713H144V336.713ZM144.896 336.713H144V338.713H144.896V336.713ZM152.116 330.306C151.535 333.946 148.497 336.713 144.896 336.713V338.713C149.564 338.713 153.369 335.147 154.091 330.621L152.116 330.306ZM214.388 241.215C191.629 258.453 159.202 285.908 152.116 330.306L154.091 330.621C161.043 287.063 192.866 260.025 215.595 242.809L214.388 241.215Z" fill="url(#paint1_linear_0_1)" mask="url(#path-3-outside-2_0_1)"/>
<ellipse cx="144" cy="145" rx="99" ry="105" fill="white"/>
<path d="M185.312 207.32C185.455 207.225 185.554 207.074 185.62 206.957C185.696 206.82 185.771 206.645 185.839 206.433C185.975 206.008 186.094 205.408 186.139 204.602C186.229 202.99 186.027 200.525 185.06 196.932C183.389 190.722 180.063 183.463 175.593 176.182L175.292 175.693L174.849 176.058C172.692 177.836 170.396 179.536 167.982 181.134C165.567 182.732 163.105 184.18 160.626 185.471L160.117 185.736L160.45 186.205C165.405 193.164 170.786 199.063 175.85 203.028C178.779 205.323 180.969 206.471 182.488 207.019C183.248 207.292 183.846 207.418 184.291 207.458C184.512 207.478 184.702 207.478 184.858 207.461C184.992 207.447 185.169 207.414 185.312 207.32ZM185.312 207.32L185.037 206.905L185.313 207.319C185.312 207.319 185.312 207.32 185.312 207.32ZM127.713 104.836L128.223 104.571L127.889 104.103C122.935 97.1432 117.553 91.2445 112.49 87.2788C109.56 84.9846 107.371 83.8359 105.851 83.2887C105.091 83.0151 104.493 82.8895 104.049 82.8491C103.827 82.829 103.637 82.8294 103.481 82.8461C103.347 82.8604 103.17 82.8928 103.027 82.9873L103.026 82.9876C102.884 83.082 102.785 83.2328 102.719 83.3504C102.643 83.4877 102.568 83.6623 102.5 83.8742C102.364 84.2989 102.245 84.899 102.2 85.7052C102.11 87.3178 102.312 89.7819 103.279 93.3745C104.95 99.5852 108.276 106.844 112.746 114.125L113.047 114.614L113.49 114.249C115.647 112.471 117.942 110.772 120.357 109.174L120.081 108.757L120.357 109.174C122.772 107.575 125.234 106.127 127.713 104.836ZM121.055 178.851L120.579 178.945L121.055 178.851L121.05 178.827C120.047 173.71 119.162 169.202 115.711 163.987C112.259 158.771 108.454 156.195 104.135 153.271L104.117 153.259C98.7687 149.638 92.7551 145.567 86.5498 136.191C80.1954 126.589 77.9606 115.09 80.2567 103.807C82.5528 92.5238 89.1038 82.8127 98.7053 76.4582C118.525 63.3414 145.321 68.7944 158.438 88.6135C164.643 97.9896 166.041 105.116 167.284 111.454L167.288 111.477C168.291 116.594 169.175 121.103 172.627 126.319C176.079 131.535 179.884 134.11 184.203 137.034L184.221 137.047C189.57 140.668 195.584 144.74 201.789 154.117C208.144 163.718 210.379 175.217 208.082 186.5C205.786 197.783 199.235 207.495 189.634 213.849L189.904 214.258L189.634 213.849C169.815 226.966 143.018 221.513 129.901 201.693C123.696 192.317 122.298 185.19 121.055 178.851ZM185.39 147.839L185.432 147.553L185.205 147.374C183.384 145.937 181.589 144.72 179.831 143.53C176.081 140.991 172.284 138.416 168.705 134.142L168.418 133.8L168.046 134.046L158.491 140.369L158.055 140.658L158.363 141.081C161.026 144.735 163.429 147.47 165.923 150.307C168.895 153.687 172.163 157.406 176.247 163.084L176.613 163.594L177.028 163.123C181.629 157.898 184.414 152.746 185.253 148.624C185.307 148.356 185.352 148.095 185.39 147.839ZM155.53 178.765L155.771 179.154L156.179 178.949C158.631 177.715 161.137 176.275 163.661 174.604C166.184 172.935 168.49 171.192 170.584 169.416L170.932 169.12L170.669 168.746C166.461 162.778 163.201 159.069 160.043 155.476C157.324 152.384 154.736 149.437 151.802 145.372L151.521 144.983L151.121 145.248L141.54 151.588L141.14 151.853L141.388 152.264C143.983 156.554 145.685 160.088 147.468 163.799C149.541 168.11 151.681 172.56 155.53 178.765ZM102.951 142.469L102.909 142.755L103.136 142.934C104.956 144.37 106.75 145.586 108.507 146.776L108.507 146.776C112.257 149.315 116.055 151.89 119.634 156.165L119.921 156.508L120.293 156.261L129.848 149.938L130.284 149.649L129.976 149.226C127.313 145.571 124.909 142.836 122.415 139.999C119.443 136.619 116.174 132.899 112.089 127.219L111.723 126.71L111.308 127.181C106.41 132.74 103.575 138.22 102.951 142.469ZM136.537 144.935L136.818 145.324L137.219 145.059L146.799 138.719L147.199 138.454L146.951 138.043C144.356 133.753 142.654 130.218 140.87 126.507C138.798 122.197 136.659 117.747 132.81 111.543L132.569 111.154L132.16 111.359C129.708 112.593 127.202 114.033 124.678 115.703C122.154 117.374 119.849 119.117 117.756 120.892L117.407 121.187L117.671 121.561C121.878 127.529 125.137 131.238 128.295 134.83L128.671 134.499L128.295 134.83C131.014 137.922 133.603 140.869 136.537 144.935ZM94.8867 91.8009L94.6775 90.6565L93.9911 91.5958C91.0341 95.6424 88.958 100.313 87.9293 105.368C86.0507 114.6 87.8799 124.013 93.0794 131.87C94.0225 133.295 94.9596 134.575 95.8909 135.74L96.4331 136.418L96.7475 135.608C97.9155 132.601 99.6531 129.48 101.946 126.324C103.427 124.286 105.105 122.283 106.951 120.334L107.218 120.051L107.01 119.722C101.128 110.431 96.4205 100.194 94.8867 91.8009ZM124.614 162.79L124.242 163.037L124.445 163.435C126.981 168.399 127.867 172.901 128.738 177.345C129.147 179.427 129.565 181.555 130.175 183.792L130.252 184.07L130.531 184.144C134.687 185.229 140.838 184.761 147.87 182.426L148.466 182.228L148.14 181.692C144.508 175.712 142.362 171.249 140.411 167.191C138.775 163.787 137.197 160.506 134.874 156.627L134.605 156.178L134.169 156.467L124.614 162.79ZM134.423 192.535L133.555 192.508L133.967 193.272C134.675 194.584 135.488 195.947 136.431 197.372C144.78 209.989 159.901 215.488 173.839 212.261L174.975 211.998L174.002 211.356C166.88 206.662 159.304 198.335 153.057 189.297L152.835 188.977L152.471 189.113C149.955 190.05 147.455 190.812 145.001 191.378C141.199 192.255 137.648 192.635 134.423 192.535ZM193.449 198.511L193.658 199.656L194.345 198.716C197.303 194.668 199.381 189.996 200.41 184.939C202.289 175.707 200.459 166.294 195.26 158.438C194.317 157.013 193.38 155.734 192.449 154.569L191.907 153.891L191.593 154.701C190.421 157.718 188.674 160.849 186.37 164.016C184.895 166.042 183.225 168.036 181.388 169.975L181.12 170.258L181.328 170.586C187.212 179.879 191.917 190.116 193.449 198.511ZM163.725 127.517L164.097 127.271L163.894 126.873C161.358 121.907 160.471 117.405 159.6 112.961C159.192 110.879 158.774 108.753 158.164 106.517L158.087 106.238L157.807 106.165C153.654 105.081 147.502 105.55 140.47 107.884L139.874 108.082L140.2 108.618C143.832 114.597 145.977 119.059 147.927 123.115C149.563 126.52 151.142 129.801 153.465 133.68L153.734 134.129L154.17 133.841L163.725 127.517ZM153.916 97.7721L154.784 97.799L154.371 97.035C153.664 95.7226 152.852 94.36 151.908 92.935C143.559 80.3183 128.438 74.8192 114.5 78.0471L113.365 78.3101L114.338 78.9516C121.459 83.646 129.035 91.973 135.283 101.011L135.504 101.331L135.868 101.195C138.371 100.262 140.858 99.5039 143.299 98.9387L143.299 98.9387C147.115 98.0549 150.68 97.6719 153.916 97.7721Z" fill="#EA352B" stroke="#EA352B"/>
<line x1="231.035" y1="81.7951" x2="190.035" y2="118.795" stroke="#EA352B" stroke-width="21"/>
<line x1="103.035" y1="182.795" x2="62.0346" y2="219.795" stroke="#EA352B" stroke-width="21"/>
<defs>
<linearGradient id="paint0_linear_0_1" x1="143.5" y1="9.5625" x2="143.5" y2="367.833" gradientUnits="userSpaceOnUse">
<stop stop-color="white"/>
<stop offset="1" stop-color="white" stop-opacity="0.35"/>
</linearGradient>
<linearGradient id="paint1_linear_0_1" x1="144" y1="24.125" x2="144" y2="337.713" gradientUnits="userSpaceOnUse">
<stop stop-color="white"/>
<stop offset="1" stop-color="white" stop-opacity="0.35"/>
</linearGradient>
</defs>
</svg>
